<mxfile host="app.diagrams.net" modified="2024-03-12T12:48:05.305Z" agent="Mozilla/5.0 (Macintosh; Intel Mac OS X 10_15_7) AppleWebKit/537.36 (KHTML, like Gecko) Chrome/122.0.0.0 Safari/537.36" version="24.0.4" etag="x8VtPu_O8zSnsZvkGHmo" type="github">
  <diagram name="PÃ¡gina-1" id="EmYeA4_ZsG6Gxs7infIN">
    <mxGraphModel>
      <root>
        <mxCell id="0" />
        <mxCell id="1" parent="0" />
      </root>
    </mxGraphModel>
  </diagram>
</mxfile>
